<?xml version="1.0" encoding="UTF-8"?>
<!DOCTYPE svg PUBLIC "-//W3C//DTD SVG 1.1//EN" "http://www.w3.org/Graphics/SVG/1.1/DTD/svg11.dtd">
<!-- Creator: CorelDRAW 2019 -->
<svg xmlns="http://www.w3.org/2000/svg" xml:space="preserve" width="8.26772in" height="11.6929in" version="1.1" style="shape-rendering:geometricPrecision; text-rendering:geometricPrecision; image-rendering:optimizeQuality; fill-rule:evenodd; clip-rule:evenodd"
viewBox="0 0 8267.72 11692.91"
 xmlns:xlink="http://www.w3.org/1999/xlink"
 xmlns:xodm="http://www.corel.com/coreldraw/odm/2003">
 <defs>
  <style type="text/css">
   <![CDATA[
    .fil0 {fill:#C40330;fill-rule:nonzero}
   ]]>
  </style>
 </defs>
 <g id="Layer_x0020_1">
  <metadata id="CorelCorpID_0Corel-Layer"/>
  <path class="fil0" d="M4133.86 1712.6c-2283.12,0 -4133.86,1850.74 -4133.86,4133.86 0,2283.12 1850.74,4133.86 4133.86,4133.86 2283.12,0 4133.86,-1850.74 4133.86,-4133.86 0,-2283.12 -1850.74,-4133.86 -4133.86,-4133.86zm-189.02 4004.34c-48.17,80.34 -135.02,129.52 -228.7,129.52l-5.17 0c-70.68,0 -138.52,28.17 -188.52,78.18l-94.35 94.35c-52.01,52.01 -52.01,136.52 0,188.52l94.35 94.35c50.01,50.01 78.18,117.85 78.18,188.52l-0 156.19c0,147.35 -119.35,266.7 -266.7,266.7l-101.84 0c-101.01,0 -193.36,-57.01 -238.53,-147.52l-377.05 -753.93c-40.67,-81.34 -149.19,-99.01 -213.53,-34.67l-324.54 324.37c-50.01,50.01 -117.85,78.18 -188.52,78.18l-1042.97 0c-28.17,-174.02 -46.84,-351.21 -46.84,-533.24 0,-1838.23 1495.52,-3333.76 3333.76,-3333.76 358.55,0 703.42,58.51 1027.3,163.69l-836.11 642.25c-85.18,56.84 -77.18,184.36 14.33,230.2l180.52 90.18c90.35,45.17 147.35,137.52 147.35,238.53l0 1302.16c0,73.68 -59.67,133.35 -133.35,133.35l-51.01 0c-50.51,0 -96.68,-28.5 -119.18,-73.68 -26,-52.01 -99.35,-54.84 -129.35,-5l-289.54 482.56zm2856.03 1836.9c0,70.68 -28.17,138.52 -78.18,188.52l-159.52 159.52c-50.01,50.01 -117.85,78.18 -188.52,78.18l-252.7 0c-70.68,0 -138.52,-28.17 -188.52,-78.18l-216.86 -216.86c-83.6,-83.61 -197.17,-130.68 -315.48,-130.68 -36.44,0 -72.94,4.52 -108.23,13.35l-354.54 88.68c-21.17,5.33 -42.84,8 -64.67,8l-172.36 -0.01c-70.68,0 -138.52,-28.17 -188.52,-78.18l-198.52 -198.52c-24.98,-25.02 -39.01,-58.95 -39.01,-94.3 0,-0.02 0,-0.03 0,-0.05l0 -170.02c0,-54.51 33.17,-103.51 83.84,-123.85l655.75 -262.37c33,-13.17 64.34,-30.34 93.18,-50.84l395.22 -281.54c22.51,-16.02 49.51,-24.68 77.16,-24.68 0.05,0 0.15,0 0.2,0l201.52 0c53.84,0 102.51,32.34 123.18,82.18l89.18 214.19c10.35,24.82 34.62,40.99 61.52,41l63.33 0.01c29.67,0 55.84,-19.67 64.01,-48.01l70.01 -241.2c8.33,-28.5 34.34,-48.01 64.01,-48.01l101.02 0c36.84,0 66.67,29.84 66.67,66.67l0 215.53c0,35.34 14,69.34 39,94.35l198.52 198.52c50.01,50.01 78.18,117.85 78.18,188.52l0 410.05 0.17 0z"/>
 </g>
</svg>
